<?xml version="1.0" encoding="UTF-8"?>
<svg width="75px" height="74px" viewBox="0 0 75 74" version="1.1" xmlns="http://www.w3.org/2000/svg" xmlns:xlink="http://www.w3.org/1999/xlink">
    <title>certified ribbon</title>
    <defs>
        <path d="M4,0 L75,0 L75,0 L75,74 L0,74 L0,4 C-2.705415e-16,1.790861 1.790861,4.05812251e-16 4,0 Z" id="path-1"></path>
    </defs>
    <g id="1025px---1400px" stroke="none" stroke-width="1" fill="none" fill-rule="evenodd">
        <g id="Vehicle-Drop-down_RacecarTile_Desktop_1400px-Copy" transform="translate(-775.000000, -1909.000000)">
            <g id="certified-ribbon" transform="translate(775.000000, 1909.000000)">
                <mask id="mask-2" fill="white">
                    <use xlink:href="#path-1"></use>
                </mask>
                <g id="Rectangle"></g>
                <g id="Group" mask="url(#mask-2)">
                    <g transform="translate(24.464737, 22.792893) rotate(-45.000000) translate(-24.464737, -22.792893) translate(-51.535263, 12.292893)">
                        <rect id="Rectangle" fill="#007CBF" fill-rule="evenodd" x="0" y="0" width="152" height="21"></rect>
                        <path d="M49.0298282,16.6671486 C49.7498282,16.6671486 50.3858282,16.5411486 50.9378282,16.2891486 C51.4898282,16.0371486 51.9538282,15.6951486 52.3298282,15.2631486 L52.3298282,15.2631486 L50.9018282,13.9191486 C50.7178282,14.1751486 50.4738282,14.3831486 50.1698282,14.5431486 C49.8658282,14.7031486 49.5098282,14.7831486 49.1018282,14.7831486 C48.7498282,14.7831486 48.4258282,14.7191486 48.1298282,14.5911486 C47.8338282,14.4631486 47.5798282,14.2851486 47.3678282,14.0571486 C47.1558282,13.8291486 46.9898282,13.5551486 46.8698282,13.2351486 C46.7498282,12.9151486 46.6898282,12.5631486 46.6898282,12.1791486 C46.6898282,11.8031486 46.7498282,11.4571486 46.8698282,11.1411486 C46.9898282,10.8251486 47.1578282,10.5511486 47.3738282,10.3191486 C47.5898282,10.0871486 47.8478282,9.90514857 48.1478282,9.77314857 C48.4478282,9.64114857 48.7778282,9.57514857 49.1378282,9.57514857 C49.4658282,9.57514857 49.7858282,9.63914857 50.0978282,9.76714857 C50.4098282,9.89514857 50.6618282,10.0911486 50.8538282,10.3551486 L50.8538282,10.3551486 L52.2458282,8.96314857 C51.8858282,8.55514857 51.4158282,8.24514857 50.8358282,8.03314857 C50.2558282,7.82114857 49.6658282,7.71514857 49.0658282,7.71514857 C48.4178282,7.71514857 47.8138282,7.81914857 47.2538282,8.02714857 C46.6938282,8.23514857 46.2058282,8.53314857 45.7898282,8.92114857 C45.3738282,9.30914857 45.0478282,9.77914857 44.8118282,10.3311486 C44.5758282,10.8831486 44.4578282,11.4991486 44.4578282,12.1791486 C44.4578282,12.8431486 44.5738282,13.4511486 44.8058282,14.0031486 C45.0378282,14.5551486 45.3578282,15.0291486 45.7658282,15.4251486 C46.1738282,15.8211486 46.6558282,16.1271486 47.2118282,16.3431486 C47.7678282,16.5591486 48.3738282,16.6671486 49.0298282,16.6671486 Z M59.1338282,16.4391486 L59.1338282,14.6871486 L55.1858282,14.6871486 L55.1858282,12.9231486 L58.7138282,12.9231486 L58.7138282,11.2791486 L55.1858282,11.2791486 L55.1858282,9.68314857 L58.9178282,9.68314857 L58.9178282,7.94314857 L53.2058282,7.94314857 L53.2058282,16.4391486 L59.1338282,16.4391486 Z M62.5058282,16.4391486 L62.5058282,13.0671486 L63.2018282,13.0671486 L65.0378282,16.4391486 L67.4378282,16.4391486 L65.2178282,12.8031486 C65.7698282,12.6351486 66.2018282,12.3551486 66.5138282,11.9631486 C66.8258282,11.5711486 66.9818282,11.0871486 66.9818282,10.5111486 C66.9818282,10.0231486 66.8898282,9.61514857 66.7058282,9.28714857 C66.5218282,8.95914857 66.2758282,8.69514857 65.9678282,8.49514857 C65.6598282,8.29514857 65.3118282,8.15314857 64.9238282,8.06914857 C64.5358282,7.98514857 64.1378282,7.94314857 63.7298282,7.94314857 L63.7298282,7.94314857 L60.4898282,7.94314857 L60.4898282,16.4391486 L62.5058282,16.4391486 Z M63.4658282,11.5791486 L62.4938282,11.5791486 L62.4938282,9.59914857 L63.5858282,9.59914857 C63.7378282,9.59914857 63.8958282,9.61114857 64.0598282,9.63514857 C64.2238282,9.65914857 64.3718282,9.70514857 64.5038282,9.77314857 C64.6358282,9.84114857 64.7438282,9.93714857 64.8278282,10.0611486 C64.9118282,10.1851486 64.9538282,10.3471486 64.9538282,10.5471486 C64.9538282,10.7631486 64.9078282,10.9391486 64.8158282,11.0751486 C64.7238282,11.2111486 64.6058282,11.3151486 64.4618282,11.3871486 C64.3178282,11.4591486 64.1578282,11.5091486 63.9818282,11.5371486 C63.8058282,11.5651486 63.6338282,11.5791486 63.4658282,11.5791486 L63.4658282,11.5791486 Z M72.0818282,16.4391486 L72.0818282,9.69514857 L74.4818282,9.69514857 L74.4818282,7.94314857 L67.6298282,7.94314857 L67.6298282,9.69514857 L70.0298282,9.69514857 L70.0298282,16.4391486 L72.0818282,16.4391486 Z M77.4818282,16.4391486 L77.4818282,7.94314857 L75.4178282,7.94314857 L75.4178282,16.4391486 L77.4818282,16.4391486 Z M81.2618282,16.4391486 L81.2618282,13.1391486 L84.5498282,13.1391486 L84.5498282,11.4471486 L81.2618282,11.4471486 L81.2618282,9.69514857 L84.8258282,9.69514857 L84.8258282,7.94314857 L79.2338282,7.94314857 L79.2338282,16.4391486 L81.2618282,16.4391486 Z M88.2098282,16.4391486 L88.2098282,7.94314857 L86.1458282,7.94314857 L86.1458282,16.4391486 L88.2098282,16.4391486 Z M95.8898282,16.4391486 L95.8898282,14.6871486 L91.9418282,14.6871486 L91.9418282,12.9231486 L95.4698282,12.9231486 L95.4698282,11.2791486 L91.9418282,11.2791486 L91.9418282,9.68314857 L95.6738282,9.68314857 L95.6738282,7.94314857 L89.9618282,7.94314857 L89.9618282,16.4391486 L95.8898282,16.4391486 Z M100.413828,16.4391486 C100.997828,16.4391486 101.573828,16.3571486 102.141828,16.1931486 C102.709828,16.0291486 103.219828,15.7731486 103.671828,15.4251486 C104.123828,15.0771486 104.487828,14.6331486 104.763828,14.0931486 C105.039828,13.5531486 105.177828,12.9111486 105.177828,12.1671486 C105.177828,11.3671486 105.037828,10.6951486 104.757828,10.1511486 C104.477828,9.60714857 104.109828,9.17314857 103.653828,8.84914857 C103.197828,8.52514857 102.677828,8.29314857 102.093828,8.15314857 C101.509828,8.01314857 100.917828,7.94314857 100.317828,7.94314857 L100.317828,7.94314857 L97.2458282,7.94314857 L97.2458282,16.4391486 L100.413828,16.4391486 Z M100.221828,14.6631486 L99.2498282,14.6631486 L99.2498282,9.69514857 L100.269828,9.69514857 C100.621828,9.69514857 100.963828,9.73514857 101.295828,9.81514857 C101.627828,9.89514857 101.923828,10.0291486 102.183828,10.2171486 C102.443828,10.4051486 102.651828,10.6571486 102.807828,10.9731486 C102.963828,11.2891486 103.041828,11.6871486 103.041828,12.1671486 C103.041828,12.6391486 102.963828,13.0351486 102.807828,13.3551486 C102.651828,13.6751486 102.443828,13.9311486 102.183828,14.1231486 C101.923828,14.3151486 101.623828,14.4531486 101.283828,14.5371486 C100.943828,14.6211486 100.589828,14.6631486 100.221828,14.6631486 L100.221828,14.6631486 Z" id="CERTIFIED" fill="#FFFFFF" fill-rule="nonzero"></path>
                    </g>
                </g>
            </g>
        </g>
    </g>
</svg>